<svg aria-hidden="true" style="position:absolute;width:0;height:0;overflow:hidden" xmlns="http://www.w3.org/2000/svg">
<defs>
<symbol id="icon-Client-4" viewBox="0 0 59 32"><path fill="#fff" style="fill:var(--color1, #fff)" d="M11.13 5.565H48v20.87H11.13V5.565z"/><path fill="#afb1b8" style="fill:var(--color2, #afb1b8)" d="M19.529 12.905h-.001c-.834 0-1.51.601-1.51 1.342v.001c0 .741.676 1.342 1.51 1.342h.001c.834 0 1.51-.601 1.51-1.342v-.001c0-.741-.676-1.342-1.51-1.342zM30.677 12.476c-.002-1.03-.464-2.016-1.283-2.744s-1.929-1.138-3.088-1.141c-1.159.002-2.27.412-3.089 1.14s-1.281 1.715-1.283 2.745v5.678s8.742-.865 8.743-5.677v-.001zM14.957 20.017c.002.716.323 1.403.893 1.91s1.342.792 2.148.794c.806-.002 1.578-.288 2.148-.794s.891-1.193.893-1.909v-3.951s-6.083.603-6.083 3.95zm3.041.708c-.158 0-.311-.041-.442-.119s-.233-.188-.293-.318c-.06-.129-.076-.272-.045-.409s.107-.263.218-.362c.111-.099.253-.166.408-.194s.315-.013.46.04c.146.054.27.144.357.261s.134.253.134.393c0 .093-.02.186-.06.272s-.098.165-.172.23c-.074.066-.162.118-.259.154s-.201.054-.305.054v-.003zM24.145 20.335h-.587v.606h-.306v-1.484h.966v.248h-.66v.383h.587v.247zm1.47-.102c0 .146-.026.274-.077.384s-.126.195-.222.255-.206.09-.33.09c-.123 0-.233-.03-.329-.089s-.171-.143-.224-.253c-.053-.11-.08-.236-.081-.379v-.073c0-.146.026-.274.078-.385s.127-.197.223-.256c.096-.06.207-.09.33-.09s.233.03.329.09c.096.059.171.144.223.256s.079.239.079.384v.066zm-.31-.067c0-.156-.028-.274-.084-.355s-.135-.121-.238-.121c-.103 0-.182.04-.237.12s-.084.196-.085.351v.072c0 .151.028.269.084.353s.136.125.241.125c.103 0 .181-.04.236-.12s.083-.198.084-.353v-.072zm1.301.386c0-.058-.02-.102-.061-.133s-.114-.064-.22-.098c-.106-.035-.19-.069-.252-.102-.169-.091-.253-.214-.253-.368 0-.08.022-.151.067-.214s.11-.112.195-.148c.085-.035.18-.053.285-.053s.2.019.283.058c.083.038.147.092.193.162s.069.149.069.238h-.306c0-.068-.021-.121-.064-.158s-.103-.057-.18-.057c-.075 0-.133.016-.174.048s-.062.073-.062.124c0 .048.024.089.072.121s.121.063.215.092c.174.052.301.117.38.195s.119.174.119.289c0 .128-.049.229-.146.303s-.228.109-.392.109c-.114 0-.218-.021-.312-.062s-.165-.099-.215-.172c-.049-.073-.073-.157-.073-.253h.307c0 .164.098.246.294.246.073 0 .129-.015.17-.044s.061-.071.061-.124zm1.632-.847h-.454v1.236h-.306v-1.236h-.448v-.248h1.209v.248zm1.068.594h-.587v.397h.689v.246h-.995v-1.484h.993v.248h-.687v.354h.587v.239zm.83.099h-.244v.543h-.306v-1.484h.551c.175 0 .31.039.406.117s.143.189.143.331c0 .101-.022.186-.066.254s-.11.121-.199.161l.321.606v.014h-.328l-.278-.543zm-.243-.247h.247c.077 0 .136-.019.178-.058s.063-.093.063-.162c0-.07-.02-.125-.06-.165s-.1-.06-.182-.06h-.246v.445zm1.852.268v.523h-.306v-1.484h.579c.111 0 .209.02.293.061s.15.099.196.174c.046.075.068.16.068.256 0 .145-.05.26-.15.344s-.237.125-.413.125h-.268zm0-.248h.273c.081 0 .142-.019.184-.057s.064-.092.064-.163c0-.073-.021-.131-.064-.176s-.102-.068-.177-.069h-.28v.466zm1.934.128h-.587v.397h.689v.246h-.995v-1.484h.993v.248h-.687v.354h.587v.239zm1.419-.594h-.454v1.236h-.306v-1.236h-.448v-.248h1.209v.248zm1.068.594h-.587v.397h.689v.246h-.994v-1.484h.992v.248h-.687v.354h.587v.239zm.83.099h-.243v.543h-.306v-1.484h.551c.175 0 .31.039.406.117s.143.189.143.331c0 .101-.022.186-.066.254s-.11.121-.199.161l.321.606v.014h-.328l-.278-.543zm-.243-.247H37c.077 0 .136-.019.178-.058s.063-.093.063-.162c0-.07-.02-.125-.06-.165-.039-.04-.1-.06-.182-.06h-.246v.445zm1.796.401c0-.058-.021-.102-.061-.133s-.114-.064-.22-.098c-.106-.035-.19-.069-.251-.102-.169-.091-.253-.214-.253-.368 0-.08.023-.151.067-.214.046-.063.111-.112.195-.148s.18-.053.285-.053c.106 0 .2.019.283.058s.147.092.192.162c.046.07.07.149.07.238h-.306c0-.068-.022-.121-.064-.158s-.103-.057-.18-.057c-.075 0-.133.016-.174.048s-.062.073-.062.124c0 .048.024.089.072.121s.121.063.215.092c.174.052.301.117.38.195s.119.174.119.289c0 .128-.049.229-.146.303s-.228.109-.392.109c-.114 0-.218-.021-.312-.062s-.165-.099-.215-.172c-.049-.073-.073-.157-.073-.253h.307c0 .164.098.246.294.246.073 0 .129-.015.17-.044s.061-.071.061-.124z"/></symbol>
<symbol id="icon-email-black-18dp-1" viewBox="0 0 32 32"><path d="M26.667 5.333H5.334c-1.467 0-2.653 1.2-2.653 2.667l-.013 16c0 1.467 1.2 2.667 2.667 2.667h21.333c1.467 0 2.667-1.2 2.667-2.667V8c0-1.467-1.2-2.667-2.667-2.667zM26.133 11l-9.427 5.893c-.427.267-.987.267-1.413 0L5.866 11c-.333-.213-.533-.573-.533-.96 0-.893.973-1.427 1.733-.96l8.933 5.587 8.933-5.587c.76-.467 1.733.067 1.733.96 0 .387-.2.747-.533.96z"/></symbol>
<symbol id="icon-icon-check" viewBox="0 0 34 32"><path fill="#2196f3" style="fill:var(--color3, #2196f3)" d="M4.267 0h25.6c2.356 0 4.267 1.91 4.267 4.267v23.467c0 2.356-1.91 4.267-4.267 4.267h-25.6C1.911 32.001 0 30.091 0 27.734V4.267C0 1.911 1.91 0 4.267 0z"/><path fill="#fff" style="fill:var(--color1, #fff);stroke:var(--color1, #fff)" stroke="#fff" stroke-width=".4267" d="m8.442 16.537-.147-.14-2.205 2.088 7.767 7.41 16.318-15.567-2.19-2.089-14.128 13.465-5.416-5.167z"/></symbol>
<symbol id="icon-icon-send" viewBox="0 0 32 32"><path fill="#fff" style="fill:var(--color1, #fff)" d="M32 0 0 18l10.227 3.788L26 7 14.002 23.186l.01.004-.012-.004V32l5.735-6.691L27 28l5-28z"/></symbol>
<symbol id="icon-person-black-18dp-1" viewBox="0 0 32 32"><path d="M16 16c2.947 0 5.333-2.387 5.333-5.333S18.946 5.334 16 5.334c-2.947 0-5.333 2.387-5.333 5.333S13.054 16 16 16zm0 2.667c-3.56 0-10.667 1.787-10.667 5.333v1.333c0 .733.6 1.333 1.333 1.333h18.667c.733 0 1.333-.6 1.333-1.333V24c0-3.547-7.107-5.333-10.667-5.333z"/></symbol>
<symbol id="icon-phone-black-18dp-1" viewBox="0 0 32 32"><path d="m24.882 19.773-3.268-.373c-.785-.09-1.557.18-2.11.733L17.137 22.5c-3.641-1.853-6.626-4.825-8.478-8.478l2.38-2.38c.553-.553.823-1.325.733-2.11l-.373-3.242c-.154-1.299-1.248-2.277-2.56-2.277H6.613c-1.454 0-2.663 1.209-2.573 2.663.682 10.987 9.469 19.761 20.443 20.443 1.454.09 2.663-1.119 2.663-2.573V22.32c.013-1.3-.965-2.393-2.264-2.547z"/></symbol>
</defs>
</svg>