<svg aria-hidden="true" style="position:absolute;width:0;height:0;overflow:hidden" xmlns="http://www.w3.org/2000/svg"><defs>
<symbol id="icon-Client-1" viewBox="0 0 74 32"><path fill="#afb1b8" style="fill:var(--color1, #afb1b8)" d="m30.27 9.363 3.03 2.869-5.625-.003v13.919h14.703v-5.322l3.027 2.866V9.364H30.27zm11.975 11.125-8.592-8.134h8.592v8.134zm-2.667 3.623h-9.575V14.75h.677v8.727h8.899v.634zM32.263 28h.296l-.515.971v.566h-.268v-.566L31.26 28h.297l.354.728.354-.728zm.445 1.537.125-.358h.595l.126.358h.279L33.251 28h-.24l-.581 1.537h.278zm.422-1.211.223.638h-.446l.223-.638zm1.408.601c-.039.059-.058.124-.058.195 0 .13.045.235.136.316s.213.12.365.12.283-.041.393-.124l.087.102h.298l-.226-.267c.089-.121.133-.276.133-.466h-.223c0 .103-.021.197-.064.282l-.297-.351.105-.076c.074-.053.127-.107.159-.16s.049-.113.049-.177c0-.097-.036-.178-.108-.244s-.163-.099-.275-.099c-.124 0-.222.035-.296.106s-.11.165-.11.285c0 .049.012.1.035.153s.066.117.126.192c-.114.082-.19.152-.229.212zm.694.34c-.075.058-.156.087-.243.087-.077 0-.138-.022-.184-.067s-.069-.102-.069-.173c0-.082.042-.155.127-.22l.033-.023.336.396zm-.276-.681c-.072-.089-.109-.164-.109-.223 0-.051.015-.094.044-.128s.069-.051.119-.051c.046 0 .085.014.115.043s.045.062.045.102c0 .061-.022.11-.065.149l-.033.026-.117.08zm2.503.835c.106-.092.166-.22.182-.384h-.266c-.014.11-.047.188-.1.235s-.132.071-.236.071c-.115 0-.202-.044-.262-.131s-.089-.214-.089-.38v-.136c.001-.164.033-.288.095-.373s.152-.128.268-.128c.1 0 .176.025.227.074s.084.128.097.239h.266c-.017-.168-.077-.298-.181-.391s-.24-.138-.41-.138c-.126 0-.237.03-.334.09s-.169.145-.221.255c-.051.11-.077.238-.077.383v.144c.002.142.029.266.079.373s.122.19.215.248c.094.058.202.087.324.087.175 0 .316-.046.421-.137zm1.57-.215c.052-.114.078-.246.078-.397v-.086c-.001-.15-.027-.281-.08-.394s-.128-.2-.225-.26c-.096-.061-.207-.091-.333-.091s-.236.031-.334.092c-.096.061-.171.148-.225.263s-.079.247-.079.397v.087c.001.147.027.277.08.39s.129.2.226.261c.098.061.209.091.334.091.126 0 .237-.03.334-.091s.172-.148.224-.262zm-.287-.869c.065.091.097.221.097.392v.08c0 .173-.032.305-.096.395s-.154.135-.272.135c-.117 0-.208-.046-.275-.138s-.098-.223-.098-.392v-.089c.001-.165.035-.293.099-.383s.156-.136.271-.136c.118 0 .209.045.273.136z"/></symbol>
<symbol id="icon-Client-2" viewBox="0 0 74 32"><path fill="#afb1b8" style="fill:var(--color1, #afb1b8)" d="M35.509 8.902h-.059c-.091-.005-.182-.008-.272-.01h-.197c-.172 0-.347.004-.521.013-.013-.001-.026-.001-.039 0-1.576.089-3.12.483-4.547 1.16l-.187.09v9.575l.438-.148c.384-.132.793-.251 1.216-.361 1.144-.294 2.32-.45 3.501-.465v1.258c-.156.001-.309.006-.461.013h-.036c-.909.05-1.811.188-2.693.413-1.117.28-2.195.7-3.209 1.25V9.41c1.052-.614 2.185-1.075 3.366-1.369 1.037-.268 2.102-.405 3.172-.409h.185c.221.006.437.015.639.031.533.037 1.062.122 1.581.252v1.238c-.504-.117-1.016-.195-1.532-.231-.01-.001-.021-.002-.031-.003-.107-.009-.214-.018-.313-.018zm2.179 1.266c.275.021.559.031.847.031 1.125-.004 2.245-.148 3.335-.428 1.117-.281 2.195-.701 3.207-1.251v12.061c-1.053.613-2.186 1.074-3.367 1.369-1.037.267-2.102.404-3.172.408-.811.007-1.619-.089-2.407-.284V9.935c.186.043.377.082.572.115.319.054.656.094.985.118zm6.138.093-.438.147c-.403.135-.808.256-1.216.364-1.188.305-2.409.462-3.635.466-.285 0-.548-.008-.802-.024l-.349-.023v9.849l.3.026c.278.024.565.036.853.036.966-.004 1.927-.129 2.863-.371.77-.193 1.52-.462 2.237-.804l.187-.09v-9.578zM29.292 25.887c-.063-.065-.139-.116-.223-.15s-.174-.05-.264-.046c-.096-.001-.192.017-.281.053-.082.033-.156.082-.219.144s-.11.138-.141.22c-.034.086-.051.179-.05.272v1.641c-.004.116.018.231.065.337.039.084.095.159.164.22.066.055.143.095.225.117.08.022.162.034.245.034.091.001.182-.019.265-.057.082-.036.156-.087.219-.152.061-.064.11-.138.143-.22.035-.083.053-.172.053-.262v-.184h-.429V28c.001.05-.007.1-.025.146-.014.035-.035.066-.062.092-.027.021-.057.038-.09.047-.029.01-.059.015-.09.015-.038.004-.077-.001-.112-.017s-.066-.04-.089-.071c-.04-.066-.06-.143-.057-.22v-1.53c-.003-.085.015-.169.052-.245.022-.035.054-.062.091-.08s.078-.024.119-.019c.037-.001.074.006.107.023s.062.04.084.07c.048.063.073.141.071.22v.142h.424v-.167c.001-.098-.017-.196-.053-.287-.032-.086-.08-.165-.143-.231zM31.84 25.868c-.137-.115-.309-.179-.488-.18-.087 0-.174.016-.256.046-.083.03-.16.075-.226.134-.071.064-.128.142-.166.23-.043.1-.064.209-.062.318v1.574c-.003.111.018.221.062.322.039.085.096.16.166.22.066.061.143.108.226.139.082.03.169.046.256.046s.174-.016.256-.046c.085-.031.164-.078.232-.139s.123-.136.162-.22c.044-.102.065-.212.062-.322v-1.574c.002-.109-.019-.218-.062-.318-.038-.087-.093-.165-.162-.23zm-.201 2.121c.004.042-.002.084-.017.124s-.038.075-.068.104c-.057.048-.128.073-.202.073s-.145-.026-.202-.073c-.03-.029-.054-.065-.068-.104s-.021-.082-.017-.124v-1.574c-.004-.042.002-.084.017-.124s.038-.075.068-.104c.057-.047.128-.073.202-.073s.145.026.202.073c.03.029.054.065.068.104s.021.082.017.124v1.574zM35.186 28.692v-2.979h-.412l-.541 1.577h-.008l-.546-1.577h-.408v2.979h.426V26.88h.008l.417 1.281h.212l.42-1.281h.008v1.812h.426zM37.603 25.922c-.066-.073-.148-.129-.241-.163-.1-.032-.204-.048-.309-.046h-.632v2.979h.424v-1.163h.219c.132.006.264-.022.383-.081.097-.054.177-.132.233-.228.049-.079.082-.167.097-.259.017-.112.024-.225.023-.339.004-.143-.01-.286-.042-.426-.028-.103-.082-.197-.156-.274zm-.218.908c-.002.054-.015.107-.039.155-.024.046-.063.082-.109.104-.063.028-.131.041-.2.037h-.194v-1.013h.219c.066-.003.132.01.191.037.044.025.079.064.1.11.023.052.036.109.037.166v.198c0 .069.004.141 0 .205h-.004zM39.614 25.713h-.348l-.656 2.979h.424l.125-.64h.579l.125.64h.424l-.673-2.979zm-.392 1.933.209-1.08h.008l.208 1.08h-.424zM42.357 27.508h-.008l-.641-1.795H41.3v2.979h.424v-1.791h.009l.649 1.791h.399v-2.979h-.424v1.795zM44.95 25.713l-.342 1.184h-.009l-.341-1.184h-.45l.583 1.72v1.259h.425v-1.259l.583-1.72h-.449z"/></symbol>
<symbol id="icon-Client-3" viewBox="0 0 74 32"><path fill="#afb1b8" style="fill:var(--color1, #afb1b8)" d="M29.581 26.977c.007 0 .014.002.02.004s.012.006.017.01l.094.09c-.073.073-.164.131-.265.171-.119.043-.247.064-.376.061-.121.002-.242-.017-.354-.057-.101-.037-.192-.092-.266-.162-.076-.073-.135-.158-.172-.25-.041-.103-.062-.212-.06-.321-.002-.11.02-.219.065-.322.041-.093.103-.178.183-.25.081-.071.177-.126.283-.163.116-.039.24-.059.364-.057.116-.002.231.015.338.052.093.035.179.084.253.144l-.079.096c-.005.007-.012.013-.02.017-.009.006-.021.008-.032.007-.012-.001-.024-.004-.034-.01l-.042-.026-.059-.033c-.025-.012-.052-.023-.079-.032-.035-.011-.071-.019-.107-.026-.046-.007-.093-.011-.14-.01-.09-.001-.179.014-.262.043-.078.027-.147.068-.205.121-.059.056-.104.121-.133.193-.033.082-.05.168-.048.254-.001.088.015.175.048.258.029.071.073.136.131.192.054.052.121.093.196.119.077.028.16.042.243.041.048.001.096-.002.144-.008.078-.008.152-.032.218-.069.033-.019.064-.04.093-.064.012-.01.028-.016.045-.016zM32.305 26.524c.001.109-.02.217-.064.319-.038.092-.099.177-.178.247s-.174.126-.279.162c-.231.076-.486.076-.717 0-.104-.037-.199-.092-.277-.163-.079-.072-.14-.157-.179-.25-.085-.206-.085-.432 0-.638.04-.093.101-.178.179-.251.079-.068.173-.122.277-.157.231-.078.486-.078.717 0 .105.037.199.092.278.163.078.071.138.155.178.247.044.103.065.211.064.321zm-.248 0c.002-.087-.013-.174-.045-.256-.026-.071-.069-.136-.126-.192-.055-.053-.123-.094-.199-.121-.168-.056-.353-.056-.521 0-.076.027-.144.068-.199.121-.058.055-.101.121-.127.192-.06.167-.06.345 0 .512.027.071.07.136.127.192.055.052.123.093.199.12.168.055.353.055.521 0 .076-.027.144-.068.199-.12.057-.056.099-.121.126-.192.032-.083.047-.169.045-.256zM34.163 26.792l.025.057c.009-.02.018-.039.027-.057s.019-.038.031-.056l.602-.952c.012-.016.022-.027.034-.03.016-.004.033-.006.05-.005h.178v1.548h-.211v-1.186c-.001-.018-.001-.036 0-.053l-.606.965c-.008.014-.02.027-.035.035s-.033.013-.052.013h-.034c-.018 0-.036-.004-.052-.013s-.028-.021-.035-.035l-.624-.971v1.242h-.204v-1.545h.178c.017-.001.033.001.05.005.015.006.026.017.033.03l.615.953c.012.018.022.036.031.055zM36.43 26.715v.58h-.236v-1.546h.526c.099-.002.198.01.294.034.076.019.147.052.208.096.052.042.093.094.118.152.028.063.041.13.04.198.001.068-.014.135-.044.198-.028.059-.072.112-.127.155-.06.047-.132.081-.209.102-.092.026-.188.038-.284.036l-.285-.004zm0-.166h.285c.062.001.124-.007.183-.024.049-.014.094-.037.132-.067.035-.028.063-.063.08-.102.019-.041.029-.086.028-.13.003-.043-.005-.086-.024-.126s-.047-.076-.082-.106c-.09-.061-.203-.091-.317-.083h-.285v.637zM39.599 27.297h-.186c-.019.001-.037-.004-.052-.014-.013-.01-.024-.022-.031-.036l-.16-.374h-.805l-.166.374c-.006.014-.016.026-.029.035-.015.011-.034.016-.053.015h-.186l.707-1.548h.245l.717 1.548zm-1.167-.574h.665l-.281-.63c-.021-.047-.039-.096-.053-.145l-.027.081c-.008.025-.018.047-.026.066l-.278.629zM40.618 25.757c.014.007.026.016.035.028l1.032 1.167v-1.201h.211v1.548h-.118c-.017 0-.033-.003-.048-.009s-.027-.017-.038-.029l-1.03-1.166c.001.018.001.035 0 .053v1.15h-.211V25.75h.125c.015 0 .029.002.042.007zM43.634 26.682v.615h-.236v-.615l-.652-.932h.211c.018-.001.036.004.051.013.013.01.024.022.032.035l.408.601c.017.026.031.049.043.072s.021.044.029.066l.031-.067c.011-.024.025-.048.04-.071l.402-.605c.009-.012.019-.023.031-.033.014-.011.032-.016.051-.015h.214l-.653.936zM34.046 23.152c.103.011.206.02.311.029 1.591-.618 2.937-1.63 3.869-2.91s1.41-2.769 1.374-4.283l-1.753-1.523c.356 1.612.19 3.278-.482 4.812s-1.821 2.876-3.32 3.875z"/><path fill="#afb1b8" style="fill:var(--color1, #afb1b8)" d="m33.42 23.081.047.008c1.602-.995 2.823-2.385 3.505-3.99s.795-3.351.324-5.012l-2.497-2.17c1.01 1.783 1.417 3.779 1.172 5.755s-1.129 3.852-2.552 5.408zM41.889 17.777c-.424 1.663-1.455 3.164-2.938 4.278-.433.327-.901.619-1.396.871 1.208-.308 2.318-.854 3.245-1.594s1.646-1.656 2.102-2.675l-1.013-.879z"/><path fill="#afb1b8" style="fill:var(--color1, #afb1b8)" d="m41.491 17.532-1.442-1.253c-.028 1.428-.495 2.824-1.354 4.043s-2.077 2.215-3.529 2.885h.007c.324 0 .647-.017.968-.05 1.357-.481 2.555-1.247 3.489-2.228s1.573-2.148 1.861-3.397zM33.629 11.003l-1.72-1.497c-1.538.516-2.86 1.424-3.795 2.604s-1.437 2.578-1.441 4.01c.006 1.583.619 3.119 1.742 4.364s2.693 2.131 4.46 2.514c1.578-1.67 2.501-3.734 2.637-5.891s-.524-4.296-1.883-6.105zM45.466 17.302c-.006-1.878-.867-3.677-2.396-5.005s-3.599-2.076-5.761-2.082c-.999-.001-1.989.159-2.92.472l10.532 9.151c.361-.809.546-1.669.545-2.536z"/></symbol>
<symbol id="icon-Client-4" viewBox="0 0 74 32"><path fill="#fff" style="fill:var(--color2, #fff)" d="M1.73.432h70.054c.836 0 1.513.678 1.513 1.514V30.27c0 .836-.678 1.514-1.513 1.514H1.73c-.836 0-1.514-.678-1.514-1.514V1.946C.216 1.11.894.432 1.73.432z"/><path fill="#fff" style="fill:var(--color2, #fff)" d="M13.838 5.744h45.838v20.729H13.838V5.744z"/><path fill="#b5b8ba" style="fill:var(--color3, #b5b8ba)" d="M24.279 14.869h-.001c-1.037 0-1.878.747-1.878 1.669v.001c0 .922.841 1.669 1.878 1.669h.001c1.037 0 1.878-.747 1.878-1.669v-.001c0-.921-.841-1.669-1.878-1.669zM38.138 14.336c-.003-1.28-.576-2.507-1.595-3.412s-2.399-1.415-3.839-1.418c-1.441.002-2.822.512-3.841 1.417s-1.593 2.132-1.596 3.413v7.059s10.869-1.076 10.87-7.057v-.001zM18.595 23.711c.003.891.402 1.744 1.11 2.374s1.669.985 2.671.988c1.002-.003 1.962-.358 2.671-.987s1.108-1.483 1.111-2.373v-4.911s-7.563.749-7.563 4.91zm3.781.88c-.196 0-.387-.052-.55-.148s-.29-.234-.365-.395c-.075-.161-.095-.338-.056-.508s.133-.328.271-.451c.139-.123.315-.207.507-.241s.391-.017.572.05c.181.067.336.179.444.324s.167.315.167.489c0 .116-.025.231-.074.338s-.122.205-.214.287c-.092.082-.201.147-.322.192s-.249.067-.38.067v-.003zM30.018 24.107h-.73v.754h-.38v-1.845h1.201v.308h-.821v.476h.73v.307zm1.827-.127c0 .182-.032.341-.096.478s-.156.242-.276.317c-.119.074-.256.111-.41.111-.153 0-.289-.037-.409-.11s-.213-.178-.279-.314c-.066-.137-.099-.294-.1-.471V23.9c0-.182.033-.341.098-.479s.158-.244.277-.318c.12-.074.257-.111.41-.111s.29.037.409.111c.12.073.212.179.277.318s.099.297.099.478v.082zm-.385-.084c0-.193-.035-.34-.104-.441s-.168-.151-.296-.151c-.128 0-.226.05-.295.149s-.104.244-.105.436v.09c0 .188.035.334.104.438s.169.156.299.156c.128 0 .226-.05.294-.149s.103-.247.104-.438v-.09zm1.618.48c0-.072-.025-.127-.076-.165s-.142-.079-.274-.122c-.132-.043-.236-.085-.313-.127-.209-.113-.314-.266-.314-.457 0-.1.028-.188.084-.266s.137-.14.242-.184c.106-.044.224-.066.355-.066s.249.024.352.072c.103.047.183.114.239.201s.086.186.086.296h-.38c0-.084-.027-.15-.08-.196s-.128-.071-.224-.071c-.093 0-.165.02-.217.06s-.077.09-.077.155c0 .06.03.11.09.151s.15.079.267.114c.216.065.374.146.473.242s.148.216.148.36c0 .16-.06.285-.181.376s-.283.136-.488.136c-.142 0-.271-.026-.388-.077s-.206-.124-.267-.214c-.061-.09-.091-.195-.091-.314h.381c0 .204.122.305.365.305.09 0 .161-.018.212-.055s.076-.089.076-.155zm2.028-1.052h-.565v1.537h-.38v-1.537h-.557v-.308h1.503v.308zm1.328.737h-.73v.494h.856v.305h-1.236v-1.845h1.234v.308h-.854v.44h.73v.298zm1.033.124h-.303v.675h-.38v-1.845h.685c.218 0 .386.049.504.146s.177.234.177.412c0 .126-.027.231-.082.315s-.136.15-.247.2l.399.754v.018h-.408l-.346-.675zm-.303-.308h.307c.095 0 .169-.024.222-.072s.079-.116.079-.201c0-.087-.025-.155-.075-.205s-.125-.075-.227-.075h-.305v.554zm2.303.333v.65h-.38v-1.845h.72c.139 0 .26.025.365.076s.187.123.243.217c.057.093.085.199.085.318 0 .181-.062.323-.186.428s-.294.156-.513.156h-.333zm0-.307h.34c.101 0 .177-.024.229-.071s.08-.115.08-.203c0-.09-.027-.163-.08-.219s-.127-.084-.22-.086h-.348v.579zm2.404.158h-.73v.494h.856v.305h-1.236v-1.845h1.234v.308h-.854v.44h.73v.298zm1.764-.737h-.565v1.537h-.38v-1.537h-.557v-.308h1.503v.308zm1.328.737h-.73v.494h.856v.305h-1.236v-1.845h1.234v.308h-.854v.44h.73v.298zm1.032.124h-.303v.675h-.38v-1.845h.685c.218 0 .386.049.504.146s.177.234.177.412c0 .126-.027.231-.082.315s-.137.15-.247.2l.399.754v.018h-.408l-.346-.675zm-.302-.308H46c.095 0 .169-.024.221-.072s.079-.116.079-.201c0-.087-.025-.155-.075-.205s-.125-.075-.227-.075h-.305v.554zm2.233.499c0-.072-.026-.127-.076-.165s-.142-.079-.274-.122c-.131-.043-.236-.085-.313-.127-.21-.113-.314-.266-.314-.457 0-.1.028-.188.083-.266s.138-.14.242-.184c.105-.044.224-.066.355-.066.132 0 .249.024.352.072s.183.114.239.201c.057.087.087.186.087.296h-.38c0-.084-.027-.15-.08-.196s-.128-.071-.224-.071c-.093 0-.165.02-.217.06s-.077.09-.077.155c0 .06.03.11.09.151s.15.079.267.114c.216.065.374.146.473.242s.148.216.148.36c0 .16-.061.285-.181.376s-.284.136-.488.136c-.142 0-.271-.026-.388-.077s-.205-.124-.267-.214c-.061-.09-.091-.195-.091-.314h.381c0 .204.121.305.365.305.09 0 .161-.018.211-.055s.076-.089.076-.155z"/></symbol>
<symbol id="icon-Client-5" viewBox="0 0 74 32"><path fill="#afb1b8" style="fill:var(--color1, #afb1b8)" d="M25.408 25.089c.105.119.162.269.159.422.005.1-.014.2-.056.292s-.107.175-.189.241c-.205.142-.458.211-.714.195h-1.256v-2.677h1.23c.243-.015.484.048.681.178.079.061.142.138.184.225s.06.181.055.276c.007.148-.043.293-.143.409-.095.106-.227.18-.374.209.167.028.317.109.424.229zm-1.472-.404h.526c.119.008.238-.023.334-.089.039-.033.07-.073.09-.119s.027-.094.023-.143c.004-.048-.004-.097-.024-.142s-.049-.086-.088-.119c-.099-.067-.221-.099-.344-.09h-.517v.702zm.911 1.026c.042-.034.075-.076.097-.123s.031-.098.027-.149c.003-.052-.007-.103-.029-.151s-.056-.09-.099-.124c-.103-.07-.229-.104-.357-.097h-.551v.736h.559c.126.007.25-.026.353-.093zM27.923 26.24l-.684-1.046h-.257v1.046h-.589v-2.677h1.114c.281-.018.559.063.776.228.156.145.25.337.265.54s-.049.405-.182.568c-.137.144-.325.24-.531.272l.729 1.07h-.64zm-.942-1.412h.481c.334 0 .501-.135.501-.405.003-.055-.006-.11-.027-.162s-.054-.099-.096-.139c-.106-.08-.242-.119-.379-.109h-.487l.006.815zM31.14 25.701h-1.173l-.207.539h-.617l1.077-2.647h.667l1.073 2.647h-.617l-.203-.539zm-.158-.406-.429-1.13-.429 1.13h.857zM35.166 26.24h-.584l-1.31-1.821v1.821h-.583v-2.677h.583l1.31 1.831v-1.831h.584v2.677zM38.501 25.599c-.121.202-.305.367-.529.472-.254.118-.537.176-.821.169h-1.04v-2.677h1.04c.284-.007.566.05.821.165.224.103.408.266.529.467.12.218.183.458.183.702s-.063.485-.183.702zm-.669-.064c.167-.178.258-.405.258-.639s-.092-.461-.258-.639c-.202-.161-.464-.243-.731-.228h-.406v1.733h.406c.267.015.53-.067.731-.228zM31.505 8.67s7.541 2.607 7.381 6.379v6.38s-7.535-2.608-7.378-6.38l-.003-6.379zM45.604 19.935c1.424-.897 3.072-1.453 4.791-1.617v-1.997c-1.981.699-3.662 1.967-4.791 3.614z"/><path fill="#afb1b8" style="fill:var(--color1, #afb1b8)" d="M44.749 20.537c1.165-2.149 3.186-3.808 5.647-4.634v-5.755s-10.739 3.713-10.512 9.085v9.084s.479-.166 1.231-.477c0-.29 0-.583.034-.878.222-2.494 1.517-4.805 3.6-6.425z"/><path fill="#afb1b8" style="fill:var(--color1, #afb1b8)" d="M43.728 23.912c.056-.63.182-1.253.376-1.86-1.297 1.399-2.082 3.135-2.246 4.964-.016.173-.024.345-.029.523.61-.268 1.32-.603 2.066-.997-.19-.865-.246-1.751-.167-2.63zM44.154 23.944c-.071.796-.027 1.597.133 2.382 2.934-1.607 6.231-4.091 6.104-7.093v-.262c-2.096.215-4.057 1.054-5.583 2.388-.357.827-.577 1.698-.654 2.585z"/></symbol>
<symbol id="icon-Client-6" viewBox="0 0 74 32"><path fill="#afb1b8" style="fill:var(--color1, #afb1b8)" d="M36.941 17.596c-.192-.255-.283-.556-.261-.86v-1.247c0-.382.087-.673.26-.871s.471-.298.893-.297c.397 0 .678.085.845.254.182.216.27.48.25.746v.293h-.71v-.297c.002-.097-.004-.194-.021-.29-.01-.066-.046-.127-.101-.172-.073-.05-.165-.073-.257-.067-.097-.006-.194.019-.27.071-.062.051-.103.118-.118.19-.02.102-.03.205-.028.308v1.513c-.011.146.02.292.091.425.035.045.084.081.142.103s.121.031.183.024c.091.006.181-.018.251-.069.058-.05.095-.114.106-.184.017-.1.024-.202.022-.303v-.307h.71v.28c.02.277-.066.553-.245.784-.163.185-.441.278-.849.278s-.717-.099-.892-.304zM39.895 17.609c-.179-.194-.269-.477-.269-.851v-1.311c0-.37.09-.651.269-.841s.479-.285.899-.284c.417 0 .715.095.895.284s.27.471.27.841v1.311c0 .37-.091.654-.273.85s-.479.293-.892.293c-.413 0-.718-.099-.899-.292zm1.229-.315c.064-.122.093-.255.085-.388V15.3c.008-.131-.021-.261-.084-.38-.036-.046-.086-.082-.145-.105s-.124-.03-.187-.022c-.064-.008-.129 0-.188.023s-.109.059-.146.104c-.065.119-.094.249-.085.38v1.613c-.009.133.02.267.085.388.041.041.092.074.15.096s.119.034.182.034.125-.012.182-.034.108-.055.15-.096v-.008zM42.812 14.359h.764l.574 2.42.588-2.42h.743l.075 3.493h-.55l-.059-2.427-.567 2.427h-.441l-.588-2.436-.054 2.436h-.555l.069-3.493zM46.413 14.359h1.19c.685 0 1.028.331 1.028.992 0 .633-.361.949-1.083.949h-.405v1.552h-.735l.004-3.493zm1.017 1.493c.073.008.146.002.216-.017s.134-.051.188-.094c.084-.118.121-.256.106-.394.004-.107-.008-.213-.035-.317-.01-.035-.029-.067-.054-.096s-.057-.052-.093-.07c-.102-.042-.215-.061-.328-.056h-.285v1.044h.285zM49.69 14.359h.789l.809 3.493h-.685l-.16-.805h-.704l-.165.805h-.694l.809-3.493zm.675 2.283-.275-1.466-.275 1.466h.55zM51.943 14.359h.514l.984 1.992v-1.992h.61v3.493h-.489l-.99-2.08v2.08h-.63l.001-3.493zM55.478 16.52l-.818-2.156h.689l.499 1.385.468-1.385h.675l-.808 2.156v1.332h-.705V16.52zM38.075 19.379v.183h-.599v1.419h-.251v-1.419h-.602v-.183h1.453zM39.954 20.981h-.194c-.02.001-.039-.004-.054-.015-.015-.009-.026-.022-.032-.037l-.173-.38h-.831l-.173.38c-.005.016-.014.031-.026.043-.015.011-.035.016-.054.015h-.194l.735-1.602h.256l.743 1.595zm-1.217-.595h.693l-.294-.652c-.022-.049-.04-.1-.054-.151-.01.03-.019.06-.028.085l-.026.067-.291.651zM41.22 20.824c.046.002.092.002.138 0 .04-.004.079-.01.118-.019.036-.008.071-.017.106-.029.032-.011.065-.025.098-.039v-.36h-.294c-.007 0-.015-.001-.021-.003s-.013-.006-.018-.01c-.005-.004-.009-.008-.011-.013s-.004-.011-.004-.016v-.123h.57v.614c-.047.029-.096.054-.147.076-.052.022-.107.041-.163.055-.06.015-.121.026-.184.033-.071.007-.143.01-.214.01-.127.001-.252-.019-.37-.06-.11-.038-.21-.095-.294-.167-.082-.073-.146-.159-.19-.254-.046-.106-.069-.219-.068-.332-.002-.114.021-.228.066-.335.042-.095.107-.181.19-.254.084-.072.184-.129.294-.166.126-.041.259-.061.394-.06.068 0 .137.005.204.014.06.008.118.022.175.041.051.017.101.038.147.063.045.025.088.053.128.084l-.071.099c-.006.009-.014.017-.024.022s-.022.008-.033.008c-.016 0-.032-.005-.046-.013-.022-.01-.046-.023-.072-.038-.031-.017-.064-.031-.098-.043-.044-.015-.089-.027-.135-.035-.062-.01-.124-.014-.187-.014-.097-.001-.193.014-.283.044-.082.028-.155.072-.216.127-.061.058-.107.125-.137.199-.066.174-.066.361 0 .534.032.075.082.144.147.202.06.055.133.098.215.127.093.028.192.038.291.032zM43.562 20.798h.802v.183h-1.047v-1.602h.251l-.006 1.419zM45.198 20.981h-.251v-1.602h.251v1.602zM46.132 19.387c.015.007.028.017.038.029l1.074 1.207c-.001-.019-.001-.038 0-.057v-1.194h.219v1.608h-.126c-.019.001-.038-.002-.054-.009-.015-.008-.029-.018-.039-.03l-1.072-1.206v1.246h-.21v-1.602h.131c.014 0 .028.003.041.008zM49.313 19.379v.176h-.89v.529h.721v.17h-.721v.547h.89v.176h-1.149v-1.598h1.149zM22.989 9.487l11.155 2.734v9.582L22.989 19.07V9.487zm-.716-.817v10.865l12.584 3.086V11.757L22.273 8.67z"/><path fill="#afb1b8" style="fill:var(--color1, #afb1b8)" d="m29.018 27.665-12.585-3.088V13.713L29.018 16.8v10.865z"/><path fill="#afb1b8" style="fill:var(--color1, #afb1b8)" d="m22.482 9.364 11.009 2.7-4.682 4.043-11.011-2.701 4.683-4.042zm-.209-.694-5.841 5.043L29.017 16.8l5.84-5.043L22.273 8.67zM29.726 27.054l5.131-4.431-5.131-1.259v5.691z"/></symbol>
<symbol id="icon-Ellipse-2" viewBox="0 0 33 32"><path fill="#2196f3" style="fill:var(--color4, #2196f3)" d="M32.035 16c0 4.418-1.774 8.418-4.641 11.314S20.565 32 16.19 32c-4.375 0-8.337-1.791-11.204-4.686S.345 20.419.345 16c0-4.418 1.773-8.418 4.641-11.314S11.814 0 16.19 0c4.375 0 8.337 1.791 11.204 4.686S32.035 11.581 32.035 16z"/><path fill="#fff" style="fill:var(--color2, #fff)" d="M23.393 11.49c-.536.237-1.106.395-1.701.471.612-.369 1.079-.949 1.299-1.648-.571.344-1.201.586-1.873.722-.542-.583-1.314-.944-2.157-.944-1.635 0-2.951 1.34-2.951 2.983 0 .236.02.464.068.68-2.455-.121-4.627-1.309-6.087-3.119-.255.446-.404.957-.404 1.507 0 1.033.527 1.948 1.312 2.478-.474-.009-.94-.148-1.334-.367v.033c0 1.449 1.024 2.653 2.366 2.93-.24.066-.502.098-.774.098-.189 0-.38-.011-.559-.051.383 1.181 1.468 2.049 2.759 2.077-1.005.794-2.28 1.272-3.661 1.272-.242 0-.474-.011-.707-.041 1.308.852 2.858 1.338 4.53 1.338 5.434 0 8.405-4.545 8.405-8.485 0-.132-.005-.259-.011-.385.586-.42 1.078-.944 1.48-1.548z"/></symbol>
<symbol id="icon-Ellipse-3" viewBox="0 0 33 32"><path fill="#fff" style="fill:var(--color2, #fff)" opacity=".1" d="M32.381 16c0 4.418-1.773 8.418-4.641 11.314S20.912 32 16.536 32c-4.375 0-8.336-1.791-11.204-4.686S.691 20.419.691 16c0-4.418 1.773-8.418 4.641-11.314S12.161 0 16.536 0c4.375 0 8.337 1.791 11.204 4.686S32.381 11.581 32.381 16z"/><path fill="#fff" style="fill:var(--color2, #fff)" d="M18.936 11.143h1.315V8.83c-.227-.032-1.007-.102-1.916-.102-1.896 0-3.195 1.204-3.195 3.418v2.037h-2.092v2.585h2.092v6.505h2.565v-6.505h2.008l.319-2.585h-2.327v-1.781c.001-.747.2-1.259 1.231-1.259z"/></symbol><symbol id="icon-Ellipse-4" viewBox="0 0 32 32"><path fill="#fff" style="fill:var(--color2, #fff)" opacity=".1" d="M32 16c0 4.418-1.773 8.418-4.641 11.314S20.53 32 16.155 32c-4.375 0-8.337-1.791-11.204-4.686S.31 20.419.31 16c0-4.418 1.773-8.418 4.641-11.314S11.779 0 16.155 0c4.375 0 8.337 1.791 11.204 4.686S32 11.581 32 16z"/><path fill="#fff" style="fill:var(--color2, #fff)" d="M23.354 23.273v-.001h.004v-5.335c0-2.61-.556-4.62-3.578-4.62-1.452 0-2.427.805-2.825 1.568h-.042v-1.324h-2.865v9.711h2.983v-4.809c0-1.266.238-2.49 1.79-2.49 1.53 0 1.553 1.445 1.553 2.572v4.728h2.98zM9.191 13.562h2.986v9.711H9.191v-9.711zM10.683 8.727c-.955 0-1.73.782-1.73 1.747s.775 1.763 1.73 1.763 1.73-.799 1.73-1.763-.775-1.747-1.73-1.747z"/></symbol><symbol id="icon-Ellipse" viewBox="0 0 32 32"><path fill="#fff" style="fill:var(--color2, #fff)" opacity=".1" d="M31.689 16c0 4.418-1.773 8.418-4.641 11.314S20.22 32 15.844 32c-4.375 0-8.336-1.791-11.204-4.686S-.001 20.419-.001 16c0-4.418 1.773-8.418 4.641-11.314S11.469 0 15.844 0c4.375 0 8.337 1.791 11.204 4.686S31.689 11.581 31.689 16z"/><path fill="#fff" style="fill:var(--color2, #fff)" d="M23.033 13.004c-.034-.773-.158-1.304-.335-1.765-.183-.489-.464-.926-.833-1.29-.36-.369-.796-.656-1.275-.838-.459-.179-.982-.304-1.747-.338-.771-.037-1.016-.046-2.971-.046s-2.2.009-2.969.043c-.765.034-1.292.159-1.747.338-.484.185-.917.469-1.278.841-.366.364-.65.804-.83 1.287-.177.463-.301.992-.335 1.764-.037.779-.045 1.026-.045 3.001s.008 2.222.042 2.998c.034.773.158 1.304.335 1.765.183.489.467.926.833 1.29.36.369.796.656 1.275.838.459.179.982.304 1.748.338.768.034 1.013.043 2.969.043s2.2-.008 2.969-.043c.765-.034 1.292-.159 1.747-.338.968-.378 1.733-1.151 2.108-2.128.177-.463.301-.992.335-1.765.034-.776.042-1.023.042-2.998s-.003-2.222-.037-2.998zm-1.297 5.939c-.031.71-.149 1.094-.248 1.35-.242.634-.74 1.137-1.368 1.381-.253.099-.636.219-1.337.25-.76.034-.988.043-2.91.043s-2.153-.008-2.91-.043c-.703-.031-1.083-.151-1.337-.25-.312-.117-.597-.301-.827-.543-.239-.236-.422-.52-.538-.835-.098-.256-.217-.642-.248-1.35-.034-.767-.042-.997-.042-2.938s.008-2.174.042-2.938c.031-.71.149-1.094.248-1.35.115-.316.298-.602.54-.835.233-.242.515-.426.827-.543.253-.1.636-.219 1.337-.25.76-.034.988-.043 2.909-.043 1.925 0 2.153.009 2.91.043.703.031 1.083.151 1.337.25.312.116.596.301.827.543.239.236.422.52.538.835.098.256.217.642.248 1.35.034.767.042.997.042 2.938s-.008 2.168-.042 2.935z"/><path fill="#fff" style="fill:var(--color2, #fff)" d="M15.871 12.265c-2.043 0-3.7 1.674-3.7 3.736s1.657 3.736 3.7 3.736 3.7-1.674 3.7-3.736-1.657-3.736-3.7-3.736zm0 6.16c-1.325 0-2.4-1.085-2.4-2.424s1.075-2.424 2.4-2.424 2.4 1.085 2.4 2.424-1.075 2.424-2.4 2.424zM20.582 12.117c0 .482-.387.872-.864.872s-.864-.391-.864-.872c0-.482.387-.872.864-.872s.864.39.864.872z"/></symbol>
<symbol id="icon-envelope" viewBox="0 0 43 32"><path fill="#2196f3" style="fill:var(--color4, #2196f3)" d="M38.667 0H4C1.794 0 0 1.794 0 4v24c0 2.206 1.794 4 4 4h34.667c2.206 0 4-1.794 4-4V4c0-2.206-1.794-4-4-4zm0 2.667c.181 0 .353.038.511.103L21.334 18.236 3.49 2.77c.158-.066.33-.103.511-.103h34.667zm0 26.666H4c-.736 0-1.333-.598-1.333-1.333V5.587L20.46 21.008c.251.217.563.326.874.326s.622-.108.874-.326L40.001 5.587V28c0 .736-.598 1.333-1.333 1.333z"/></symbol>
<symbol id="icon-Group-1" viewBox="0 0 72 32"><path fill="#f5f4fa" style="fill:var(--color5, #f5f4fa)" d="M1.067 0h69.867c.589 0 1.067.478 1.067 1.067v29.867c0 .589-.478 1.067-1.067 1.067H1.067C.478 32.001 0 31.523 0 30.934V1.067C0 .478.478 0 1.067 0z"/><path fill="#212121" style="fill:var(--color6, #212121)" d="m44.618 19.557-4.925-4.961.547-2.692c.141.055.291.084.442.085h.004c.695.008 1.266-.549 1.274-1.244s-.549-1.266-1.245-1.274c-.695-.008-1.266.549-1.274 1.244-.002.149.023.297.073.437l-2.893.353-4.719-4.744c-.058-.059-.137-.093-.22-.093-.082 0-.16.033-.218.091l-.882.877c-.122.122-.122.318 0 .44l.475.482c-1.839 3.382-1.242 7.57 1.47 10.303.025.024.054.043.085.057-.02.105-.03.212-.03.319v3.609h-3.733c-.859.001-1.555.697-1.556 1.556v.622c0 .172.139.311.311.311h14.311c.172 0 .311-.139.311-.311v-.622c-.001-.859-.697-1.555-1.555-1.556h-3.733v-1.599c.585.123 1.181.185 1.778.187 1.434-.002 2.845-.359 4.107-1.04l.477.48c.058.059.137.093.22.093.082 0 .16-.033.218-.091l.882-.877c.122-.122.122-.318 0-.44zm-4.371-9.254c.243-.242.638-.241.88.002s.241.638-.002.88c-.117.116-.274.181-.439.181h-.002c-.343-.002-.621-.282-.619-.625.001-.165.067-.322.183-.438h-.001zm-.733 2.044-.349 1.718-.686-.69 1.035-1.029zm-.353-.526-1.12 1.113-.866-.871 1.986-.242zm1.508 11.646c.515 0 .933.418.933.933v.311H27.913V24.4c0-.515.418-.933.933-.933h11.822zm-4.355-1.245v.622h-3.111v-.622h3.111zm-3.112-.622v-2.364c0-.755.698-1.369 1.555-1.369s1.556.614 1.556 1.369V21.6h-3.111zm3.734-.989v-1.375c0-1.098-.977-1.991-2.178-1.991-.776-.012-1.502.383-1.914 1.042-2.367-2.493-2.9-6.21-1.329-9.268l10.851 10.913c-1.675.852-3.596 1.092-5.43.679zm6.585-.399L31.238 7.857l.44-.439 4.629 4.655c.002 0 .003.004.006.006l7.65 7.695-.441.439z"/><path fill="#2196f3" style="fill:var(--color4, #2196f3)" d="M34.761 18.489h-.003c-.515-.001-.934.416-.935.932s.417.934.932.935h.003c.515.001.934-.416.935-.932s-.417-.934-.932-.935zm.217 1.154c-.058.058-.138.091-.221.091-.172-.001-.31-.141-.309-.313 0-.082.033-.161.092-.219s.136-.09.218-.091c.172.001.31.141.31.313-.001.082-.033.161-.092.219h.003z"/></symbol>
<symbol id="icon-Group-2" viewBox="0 0 72 32"><path fill="#f5f4fa" style="fill:var(--color5, #f5f4fa)" d="M1.067 0h69.867c.589 0 1.067.478 1.067 1.067v29.867c0 .589-.478 1.067-1.067 1.067H1.067C.478 32.001 0 31.523 0 30.934V1.067C0 .478.478 0 1.067 0z"/><path fill="#212121" style="fill:var(--color6, #212121)" d="M44.923 15.592c-.001-4.931-3.999-8.927-8.93-8.926s-8.927 3.999-8.926 8.93c.001 3.884 2.512 7.321 6.212 8.503.035.011.072.017.109.017.07 0 .139-.019.2-.055.079-.047.138-.121.165-.208l2.255-7.146c.616-.003 1.113-.505 1.11-1.122s-.505-1.113-1.122-1.11c-.166.001-.329.039-.478.112l-2.978-2.979c-.148-.143-.383-.139-.526.009-.139.144-.139.373 0 .517l2.977 2.98c-.228.466-.098 1.029.313 1.347l-2.148 6.809c-4.245-1.564-6.419-6.273-4.855-10.518s6.273-6.419 10.519-4.855c4.245 1.564 6.419 6.273 4.855 10.518-.764 2.074-2.334 3.752-4.353 4.651l-.232-1.093c-.042-.201-.24-.329-.441-.287-.063.014-.122.043-.171.086L36.24 23.77c-.154.137-.167.372-.031.525.045.05.102.087.165.107l2.858.912c.195.063.405-.045.468-.24.02-.062.023-.128.01-.191l-.228-1.073c3.304-1.393 5.449-4.633 5.442-8.219zm-8.928-.372c.205 0 .372.167.372.372s-.167.372-.372.372c-.206 0-.372-.166-.372-.372s.166-.372.372-.372zm1.226 8.671 1.274-1.136.352 1.657-1.626-.52z"/><path fill="#2196f3" style="fill:var(--color4, #2196f3)" d="M35.623 8.525v.744c0 .206.166.372.372.372s.372-.166.372-.372v-.744c0-.205-.167-.372-.372-.372s-.372.167-.372.372zM28.928 15.22c-.206 0-.372.167-.372.372s.166.372.372.372h.744c.205 0 .372-.166.372-.372s-.167-.372-.372-.372h-.744zM43.063 15.964c.205 0 .372-.166.372-.372s-.166-.372-.372-.372h-.744c-.206 0-.372.167-.372.372s.166.372.372.372h.744z"/></symbol>
<symbol id="icon-Group-3" viewBox="0 0 72 32"><path fill="#f5f4fa" style="fill:var(--color5, #f5f4fa)" d="M1.067 0h69.867c.589 0 1.067.478 1.067 1.067v29.867c0 .589-.478 1.067-1.067 1.067H1.067C.478 32.001 0 31.523 0 30.934V1.067C0 .478.478 0 1.067 0z"/><path fill="#2196f3" style="fill:var(--color4, #2196f3)" d="M35.373 15.396h.622v2.799h-.622v-2.799zM37.861 16.64h.622v1.555h-.622V16.64zM32.886 17.573h.622v.622h-.622v-.622zM31.02 17.262h.622v.933h-.622v-.933z"/><path fill="#212121" style="fill:var(--color6, #212121)" d="M27.599 23.17h14.926c.515 0 .933-.418.933-.933v-1.244c0-.515-.418-.933-.933-.933h-.311v-7.754l1.766-1.673c.41.202.906.079 1.174-.291s.231-.88-.089-1.207-.829-.375-1.205-.115c-.376.26-.51.754-.317 1.168l-1.331 1.262v-.717c0-.515-.418-.933-.933-.933H28.841c-.515 0-.933.418-.933.933v9.328h-.311c-.515 0-.933.418-.933.933v1.244c0 .515.418.933.933.933zM44.391 9.488c.172 0 .311.139.311.311s-.139.311-.311.311-.311-.139-.311-.311.139-.311.311-.311zm-15.859 1.244c0-.172.139-.311.311-.311h12.438c.172 0 .311.139.311.311v1.306l-.622.591v-1.275c0-.172-.139-.311-.311-.311H29.465c-.172 0-.311.139-.311.311v7.774c0 .172.139.311.311.311h11.194c.171 0 .311-.139.311-.311v-5.643l.622-.589v7.165h-13.06v-9.328zm2.799 4.042c-.421-.001-.79.279-.902.685s.061.836.423 1.05c.362.215.822.161 1.125-.132l1.081.542c.126.063.278.033.371-.072l2.298-2.585 2.259 1.692c.121.091.29.081.4-.023l1.963-1.859v4.743H29.777v-7.152h10.572v1.552l-2.2 2.083-2.278-1.707c-.129-.097-.311-.079-.419.042l-2.329 2.621-.871-.435c.006-.037.01-.075.012-.113 0-.515-.418-.933-.933-.933zm.311.933c0 .172-.139.311-.311.311s-.311-.139-.311-.311.139-.311.311-.311.311.139.311.311zm1.865 4.975h3.11v.311c0 .172-.139.311-.311.311h-2.488c-.172 0-.311-.139-.311-.311v-.311zm-6.218.311c0-.172.139-.311.311-.311h5.286v.311c0 .515.418.933.933.933h2.488c.515 0 .933-.418.933-.933v-.311h5.286c.172 0 .311.139.311.311v1.244c0 .172-.139.311-.311.311H27.6c-.172 0-.311-.139-.311-.311v-1.244z"/></symbol>
<symbol id="icon-Group-4" viewBox="0 0 72 32"><path fill="#f5f4fa" style="fill:var(--color5, #f5f4fa)" d="M1.067 0h69.867c.589 0 1.067.478 1.067 1.067v29.867c0 .589-.478 1.067-1.067 1.067H1.067C.478 32.001 0 31.523 0 30.934V1.067C0 .478.478 0 1.067 0z"/><path fill="#2196f3" style="fill:var(--color4, #2196f3)" d="M45.318 9.306c-.037-.112-.134-.194-.251-.212l-1.114-.162-.499-1.01c-.105-.213-.453-.213-.558 0l-.499 1.01-1.115.162c-.117.017-.214.099-.251.212s-.006.236.079.319l.807.786-.19 1.11c-.02.117.028.235.123.304.097.07.223.079.328.024l.997-.524.997.524c.046.024.095.036.145.036.064 0 .129-.02.183-.059.096-.07.144-.188.123-.304l-.19-1.11.807-.786c.085-.083.115-.206.079-.319zm-1.436.774c-.073.071-.107.175-.089.275l.111.65-.583-.307c-.045-.024-.095-.036-.145-.036s-.099.012-.145.036l-.583.307.111-.65c.018-.101-.016-.204-.089-.275l-.473-.46.653-.095c.101-.015.189-.078.234-.17l.292-.591.292.591c.046.092.133.156.234.17l.653.095-.472.46zM41.911 18.638h-.622v.622h.622v-.622zM41.911 19.882h-.622v.622h.622v-.622zM42.533 19.26h-.622v.622h.622v-.622zM41.289 19.26h-.622v.622h.622v-.622zM39.733 22.06h-.622v.622h.622v-.622zM39.733 23.305h-.622v.622h.622v-.622zM40.356 22.682h-.622v.622h.622v-.622zM39.111 22.682h-.622v.622h.622v-.622zM36 20.816h-.622v.622H36v-.622zM36 22.06h-.622v.622H36v-.622zM36.622 21.438H36v.622h.622v-.622zM35.378 21.438h-.622v.622h.622v-.622zM30.089 10.238h-.622v.622h.622v-.622zM30.089 11.482h-.622v.622h.622v-.622zM30.711 10.86h-.622v.622h.622v-.622zM29.467 10.86h-.622v.622h.622v-.622z"/><path fill="#212121" style="fill:var(--color6, #212121)" d="M41.084 14.926c-.168-.226-.414-.372-.693-.411-.281-.04-.558.034-.782.205l-.73.56-1.107.827-.792-.315c1.413-.634 2.4-2.047 2.4-3.687 0-2.23-1.822-4.044-4.061-4.044s-4.061 1.814-4.061 4.044c0 .808.242 1.56.653 2.192l-1.612-.014h-.003c-.005 0-.009.002-.014.003-.031.001-.061.008-.091.018-.007.003-.015.004-.022.008-.004.002-.007.002-.011.004l-1.886.931h-.001l-1.104.531c-.012.005-.025.012-.037.021-.44.293-.59.869-.349 1.339.129.25.347.434.616.519.104.032.209.048.314.048.169 0 .337-.041.49-.123l.81-.431 1.321-.682.791-.005-3.174 3.159s-.001 0-.001.001l-.781.778c-.184.184-.286.427-.286.687s.102.504.286.688c.19.189.439.283.688.283s.498-.095.689-.283l.767-.764 1.015-.758.525.523-1.027 1.023c-.001 0-.001 0-.001.001l-.781.778c-.185.184-.286.427-.286.687s.102.504.286.688c.189.189.439.283.688.283s.499-.095.689-.283l2.031-2.022s0-.001.001-.001l.589-.583-.002-.002c.004-.004.009-.005.013-.009l3.013-3.301 2.025.288c.015.002.029.003.044.003.038 0 .074-.009.109-.022.01-.004.019-.009.029-.014.011-.006.023-.009.034-.016l1.874-1.244c.007-.005.011-.012.017-.017.007-.006.017-.008.024-.015l.742-.695c.386-.362.439-.954.124-1.378zm-13.175 2.107c-.101.054-.216.065-.326.03s-.197-.108-.249-.209c-.094-.183-.039-.406.125-.526l.766-.369.185.539.077.226-.579.308zm2.04-1.067-.903.467-.149-.436-.107-.313 1.182-.584-.023.866zm8.808-3.862c0 .536-.128 1.041-.349 1.493l-2.439-1.108c-.025-.334-.199-.627-.46-.81l.854-2.835c1.387.441 2.394 1.735 2.394 3.26zm-6.876 0c0-1.887 1.542-3.422 3.438-3.422.147 0 .292.012.435.03l-.835 2.773c-.011 0-.022-.003-.033-.003-.602 0-1.093.488-1.093 1.089s.49 1.089 1.093 1.089c.405 0 .755-.224.944-.551l2.253 1.024c-.627.844-1.63 1.394-2.763 1.394-1.896 0-3.438-1.535-3.438-3.422zm3.474.467c0 .257-.211.467-.47.467s-.47-.209-.47-.467.211-.467.47-.467.47.209.47.467zm-7.25 8.764c-.138.137-.361.136-.498 0-.066-.066-.103-.154-.103-.247s.036-.18.103-.246l.561-.559.497.494-.559.557zm1.874 2.178c-.138.137-.361.137-.499 0-.066-.066-.103-.154-.103-.247s.036-.18.103-.246l.562-.559.497.494-.56.557zm2.031-2.023s-.001 0-.001.001l-1.03 1.027-.497-.494L31.511 21s.001 0 .001-.001c.023-.023.038-.051.052-.079.004-.008.012-.015.015-.023.01-.024.011-.05.015-.075.002-.014.008-.028.008-.042 0-.021-.007-.041-.012-.062-.004-.019-.004-.038-.011-.056-.012-.029-.032-.055-.053-.08-.006-.007-.008-.016-.015-.022h-.001c-.001 0 0-.001-.001-.001l-.937-.933c-.01-.01-.023-.014-.034-.022-.017-.013-.033-.025-.051-.034s-.036-.014-.055-.019c-.02-.006-.039-.01-.06-.012-.019-.001-.037.001-.056.003-.021.002-.04.005-.061.012s-.037.016-.055.026c-.012.007-.025.009-.035.017l-1.035.772-.525-.523 1.399-1.392 2.543 2.502-.541.536zm3.978-4.093c-.009-.001-.017.002-.026.002-.023-.001-.044 0-.067.004-.018.003-.034.007-.051.012-.02.007-.038.016-.056.027s-.033.022-.049.036c-.007.007-.017.01-.023.017l-2.741 3.002-2.525-2.483 1.653-1.644c.122-.121.122-.318.001-.44-.061-.061-.142-.091-.222-.091l-1.294.008.016-.938 1.811.016c.738.755 1.767 1.226 2.906 1.226.255 0 .504-.026.746-.072.023.019.046.038.075.049l1.406.56.089.442.104.516-1.752-.249zm2.357.103-.182-.909.844-.63.552.733-1.213.806zm2.19-1.651-.489.458-.543-.721.485-.372c.091-.07.205-.098.317-.083.113.016.212.075.28.166.126.17.105.408-.05.553z"/><path fill="#212121" style="fill:var(--color6, #212121)" d="m34.601 17.484-1.25-1.244c-.121-.121-.318-.121-.439 0l-1.25 1.244c-.058.059-.091.138-.091.221s.033.162.091.221l1.25 1.244c.061.06.14.091.219.091s.159-.03.219-.091l1.25-1.244c.058-.058.092-.138.092-.221s-.033-.162-.092-.221zm-1.469 1.026-.809-.805.809-.805.809.805-.809.805zM36.679 9.625l-.15.604c.041.01 1.014.264 1.014 1.254h.622c0-1.177-.972-1.73-1.486-1.858zM38.165 12.104h-.622v.622h.622v-.622z"/></symbol>
<symbol id="icon-smartphone" viewBox="0 0 20 32"><path fill="#757575" style="fill:var(--color7, #757575)" d="M17 0H3C1.346 0 0 1.346 0 3v26c0 1.654 1.346 3 3 3h14c1.654 0 3-1.346 3-3V3c0-1.654-1.346-3-3-3zM3 2h14c.552 0 1 .448 1 1v21H2V3c0-.552.448-1 1-1zm14 28H3c-.552 0-1-.448-1-1v-3h16v3c0 .552-.448 1-1 1z"/><path fill="#757575" style="fill:var(--color7, #757575)" d="M4.707 27.478c.391.365.391.956 0 1.321s-1.024.365-1.414 0c-.391-.365-.391-.956 0-1.321s1.024-.365 1.414 0z"/></symbol><symbol id="icon-mail-envelope-closed" viewBox="0 0 32 32"><path d="M5.315 9.274 16.5 19l11.187-9.728c.194.184.313.445.313.735v11.986C28 22.55 27.551 23 26.997 23H6.003C5.439 23 5 22.549 5 21.993V10.007c0-.289.121-.549.315-.733zM6.004 8C4.897 8 4 8.895 4 9.994v12.012C4 23.107 4.89 24 6.004 24h20.993c1.107 0 2.004-.895 2.004-1.994V9.994c0-1.101-.89-1.994-2.004-1.994H6.004zM16.5 17.7 6.5 9h20l-10 8.7z"/></symbol><symbol id="icon-mobile2" viewBox="0 0 32 32"><path d="M24 0H6C4.9 0 4 .9 4 2v28c0 1.1.9 2 2 2h18c1.1 0 2-.9 2-2V2c0-1.1-.9-2-2-2zm-9 30.556c-.859 0-1.556-.697-1.556-1.556s.697-1.556 1.556-1.556 1.556.697 1.556 1.556-.697 1.556-1.556 1.556zM24 26H6V4h18v22z"/></symbol><symbol id="icon-facebook" viewBox="0 0 32 32"><path d="M19 6h5V0h-5c-3.86 0-7 3.14-7 7v3H8v6h4v16h6V16h5l1-6h-6V7c0-.542.458-1 1-1z"/></symbol><symbol id="icon-instagram" viewBox="0 0 32 32"><path d="M16 2.881c4.275 0 4.781.019 6.462.094 1.563.069 2.406.331 2.969.55.744.288 1.281.638 1.837 1.194.563.563.906 1.094 1.2 1.838.219.563.481 1.412.55 2.969.075 1.688.094 2.194.094 6.463s-.019 4.781-.094 6.463c-.069 1.563-.331 2.406-.55 2.969-.288.744-.637 1.281-1.194 1.837-.563.563-1.094.906-1.837 1.2-.563.219-1.413.481-2.969.55-1.688.075-2.194.094-6.463.094s-4.781-.019-6.463-.094c-1.563-.069-2.406-.331-2.969-.55-.744-.288-1.281-.637-1.838-1.194-.563-.563-.906-1.094-1.2-1.837-.219-.563-.481-1.413-.55-2.969-.075-1.688-.094-2.194-.094-6.463s.019-4.781.094-6.463c.069-1.563.331-2.406.55-2.969.288-.744.638-1.281 1.194-1.838.563-.563 1.094-.906 1.838-1.2.563-.219 1.412-.481 2.969-.55 1.681-.075 2.188-.094 6.463-.094zM16 0c-4.344 0-4.887.019-6.594.094-1.7.075-2.869.35-3.881.744-1.056.412-1.95.956-2.837 1.85-.894.888-1.438 1.781-1.85 2.831C.444 6.538.169 7.7.094 9.4.019 11.113 0 11.656 0 16s.019 4.887.094 6.594c.075 1.7.35 2.869.744 3.881.413 1.056.956 1.95 1.85 2.837.887.887 1.781 1.438 2.831 1.844 1.019.394 2.181.669 3.881.744 1.706.075 2.25.094 6.594.094s4.888-.019 6.594-.094c1.7-.075 2.869-.35 3.881-.744 1.05-.406 1.944-.956 2.831-1.844s1.438-1.781 1.844-2.831c.394-1.019.669-2.181.744-3.881.075-1.706.094-2.25.094-6.594s-.019-4.887-.094-6.594c-.075-1.7-.35-2.869-.744-3.881-.394-1.063-.938-1.956-1.831-2.844-.887-.887-1.781-1.438-2.831-1.844-1.019-.394-2.181-.669-3.881-.744-1.712-.081-2.256-.1-6.6-.1z"/><path d="M16 7.781c-4.537 0-8.219 3.681-8.219 8.219s3.681 8.219 8.219 8.219 8.219-3.681 8.219-8.219c0-4.537-3.681-8.219-8.219-8.219zm0 13.55c-2.944 0-5.331-2.387-5.331-5.331s2.387-5.331 5.331-5.331c2.944 0 5.331 2.387 5.331 5.331S18.944 21.331 16 21.331zM26.462 7.456c0 1.06-.859 1.919-1.919 1.919s-1.919-.859-1.919-1.919.859-1.919 1.919-1.919 1.919.859 1.919 1.919z"/></symbol><symbol id="icon-twitter" viewBox="0 0 32 32"><path d="M32 7.075c-1.175.525-2.444.875-3.769 1.031 1.356-.813 2.394-2.1 2.887-3.631-1.269.75-2.675 1.3-4.169 1.594C25.749 4.794 24.043 4 22.155 4c-3.625 0-6.563 2.938-6.563 6.563 0 .512.056 1.012.169 1.494-5.456-.275-10.294-2.888-13.531-6.862-.563.969-.887 2.1-.887 3.3 0 2.275 1.156 4.287 2.919 5.463-1.075-.031-2.087-.331-2.975-.819v.081c0 3.181 2.263 5.838 5.269 6.437-.55.15-1.131.231-1.731.231-.425 0-.831-.044-1.237-.119.838 2.606 3.263 4.506 6.131 4.563-2.25 1.762-5.075 2.813-8.156 2.813-.531 0-1.05-.031-1.569-.094 2.913 1.869 6.362 2.95 10.069 2.95 12.075 0 18.681-10.006 18.681-18.681 0-.287-.006-.569-.019-.85 1.281-.919 2.394-2.075 3.275-3.394z"/></symbol><symbol id="icon-linkedin2" viewBox="0 0 32 32"><path d="M12 12h5.535v2.837h.079c.77-1.381 2.655-2.837 5.464-2.837C28.92 12 30 15.637 30 20.367V30h-5.769v-8.54c0-2.037-.042-4.657-3.001-4.657-3.005 0-3.463 2.218-3.463 4.509V30H12V12zM2 12h6v18H2V12zM8 7c0 1.657-1.343 3-3 3S2 8.657 2 7s1.343-3 3-3 3 1.343 3 3z"/></symbol></defs></svg>